name Walk5.mot
datacolumns 19
datarows 25
range 2.62500000 2.74500000
endheader

                time	   L_ground_force_vx	   L_ground_force_vy	   L_ground_force_vz	   L_ground_force_px	   L_ground_force_py	   L_ground_force_pz	   R_ground_force_vx	   R_ground_force_vy	   R_ground_force_vz	   R_ground_force_px	   R_ground_force_py	   R_ground_force_pz	   L_ground_torque_x	   L_ground_torque_y	   L_ground_torque_z	   R_ground_torque_x	   R_ground_torque_y	   R_ground_torque_z	
          2.62500000	         12.09460746	        746.36568888	         53.02360403	         -0.34110606	          0.00000000	         -0.11054038	         -0.00196600	          0.06751646	          0.01775531	          0.00004169	          0.00000000	          0.00003381	          0.00000000	          1.92668537	          0.00000000	          0.00000000	         -0.00229678	          0.00000000	
          2.63000000	         14.19160699	        750.77798912	         53.67482667	         -0.33952571	          0.00000000	         -0.11071022	         -0.00487481	          0.11067098	          0.02422627	          0.00005888	          0.00000000	          0.00004735	          0.00000000	          1.93989368	          0.00000000	          0.00000000	         -0.00287831	          0.00000000	
          2.63500000	         16.44612864	        755.40338534	         54.33858365	         -0.33802541	          0.00000000	         -0.11086350	         -0.00880955	          0.16431642	          0.03132917	          0.00007843	          0.00000000	          0.00006262	          0.00000000	          1.94623276	          0.00000000	          0.00000000	         -0.00343016	          0.00000000	
          2.64000000	         18.86749927	        760.25328439	         55.01115178	         -0.33660661	          0.00000000	         -0.11100204	         -0.01385884	          0.22770521	          0.03854153	          0.00009924	          0.00000000	          0.00007871	          0.00000000	          1.94587707	          0.00000000	          0.00000000	         -0.00386767	          0.00000000	
          2.64500000	         21.46169603	        765.32813087	         55.68884717	         -0.33527071	          0.00000000	         -0.11112767	         -0.02002342	          0.29846995	          0.04503508	          0.00011945	          0.00000000	          0.00009410	          0.00000000	          1.93855810	          0.00000000	          0.00000000	         -0.00407292	          0.00000000	
          2.65000000	         24.23117895	        770.61698418	         56.36824246	         -0.33401907	          0.00000000	         -0.11124295	         -0.02716689	          0.37200933	          0.04960690	          0.00013623	          0.00000000	          0.00010648	          0.00000000	          1.92370907	          0.00000000	          0.00000000	         -0.00389067	          0.00000000	
          2.65500000	         27.17425467	        776.09782039	         57.04707598	         -0.33285117	          0.00000000	         -0.11135067	         -0.03495582	          0.44080594	          0.05061818	          0.00014561	          0.00000000	          0.00011267	          0.00000000	          1.90133139	          0.00000000	          0.00000000	         -0.00312666	          0.00000000	
          2.66000000	         30.28486977	        781.73682261	         57.72441927	         -0.33176485	          0.00000000	         -0.11145231	         -0.04279070	          0.49372224	          0.04595250	          0.00014226	          0.00000000	          0.00010842	          0.00000000	          1.87205026	          0.00000000	          0.00000000	         -0.00154966	          0.00000000	
          2.66500000	         33.55296153	        787.48904564	         58.40049981	         -0.33075659	          0.00000000	         -0.11154709	         -0.04973095	          0.51534903	          0.03300971	          0.00011950	          0.00000000	          0.00008842	          0.00000000	          1.83719005	          0.00000000	          0.00000000	          0.00110059	          0.00000000	
          2.67000000	         36.96395080	        793.30017731	         59.07669138	         -0.32982168	          0.00000000	         -0.11163327	         -0.05442021	          0.48551639	          0.00875595	          0.00006928	          0.00000000	          0.00004633	          0.00000000	          1.79868410	          0.00000000	          0.00000000	          0.00509760	          0.00000000	
          2.67500000	         40.49856350	        799.10867461	         59.75525422	         -0.32895469	          0.00000000	         -0.11170901	         -0.05502101	          0.37911817	         -0.03014472	         -0.00001759	          0.00000000	         -0.00002502	          0.00000000	          1.75870831	          0.00000000	          0.00000000	          0.01070178	          0.00000000	
          2.68000000	         44.13305613	        804.84769862	         60.43939188	         -0.32814986	          0.00000000	         -0.11177389	         -0.04917226	          0.16644704	         -0.08708794	         -0.00015088	          0.00000000	         -0.00013319	          0.00000000	          1.71953821	          0.00000000	          0.00000000	          0.01812100	          0.00000000	
          2.68500000	         47.84026453	        810.44936141	         61.13292943	         -0.32740210	          0.00000000	         -0.11182905	         -0.03398750	         -0.18571561	         -0.16514365	         -0.00034012	          0.00000000	         -0.00028545	          0.00000000	          1.68277086	          0.00000000	          0.00000000	          0.02745556	          0.00000000	
          2.69000000	         51.59475691	        815.84577052	         61.83886147	         -0.32670690	          0.00000000	         -0.11187617	         -0.00611709	         -0.71196694	         -0.26649530	         -0.00059327	          0.00000000	         -0.00048768	          0.00000000	          1.64919523	          0.00000000	          0.00000000	          0.03862563	          0.00000000	
          2.69500000	         55.37800403	        820.96973352	         62.55817085	         -0.32606082	          0.00000000	         -0.11191836	          0.03809787	         -1.44478708	         -0.39167466	         -0.00091486	          0.00000000	         -0.00074288	          0.00000000	          1.61931645	          0.00000000	          0.00000000	          0.05128039	          0.00000000	
          2.70000000	         59.17964701	        825.75574222	         63.29024705	         -0.32546136	          0.00000000	         -0.11195926	          0.10234724	         -2.40934911	         -0.53857231	         -0.00130352	          0.00000000	         -0.00104922	          0.00000000	          1.59350149	          0.00000000	          0.00000000	          0.06468965	          0.00000000	
          2.70500000	         62.99624050	        830.14000633	         64.03357223	         -0.32490583	          0.00000000	         -0.11200170	          0.18991413	         -3.61632718	         -0.70122045	         -0.00174882	          0.00000000	         -0.00139752	          0.00000000	          1.57226717	          0.00000000	          0.00000000	          0.07762173	          0.00000000	
          2.71000000	         66.82942981	        834.06119340	         64.78607800	         -0.32439115	          0.00000000	         -0.11204686	          0.30304240	         -5.05246960	         -0.86837049	         -0.00222754	          0.00000000	         -0.00176830	          0.00000000	          1.55602074	          0.00000000	          0.00000000	          0.08821482	          0.00000000	
          2.71500000	         70.68481825	        837.46118801	         65.54494365	         -0.32391368	          0.00000000	         -0.11209338	          0.44207870	         -6.66884957	         -1.02192639	         -0.00269932	          0.00000000	         -0.00212840	          0.00000000	          1.54500354	          0.00000000	          0.00000000	          0.09385410	          0.00000000	
          2.72000000	         74.56983898	        840.28065778	         66.30582528	         -0.32346952	          0.00000000	         -0.11213985	          0.60436837	         -8.36694329	         -1.13534614	         -0.00310211	          0.00000000	         -0.00242745	          0.00000000	          1.53966978	          0.00000000	          0.00000000	          0.09107304	          0.00000000	
          2.72500000	         78.49065667	        842.45483642	         67.06200607	         -0.32305469	          0.00000000	         -0.11218543	          0.78290400	         -9.98303713	         -1.17219053	         -0.00334763	          0.00000000	         -0.00259440	          0.00000000	          1.54014849	          0.00000000	          0.00000000	          0.07550444	          0.00000000	
          2.73000000	         82.45030938	        843.91336555	         67.80521575	         -0.32266483	          0.00000000	         -0.11222868	          0.96475478	        -11.27195227	         -1.08508092	         -0.00331763	          0.00000000	         -0.00253479	          0.00000000	          1.54610218	          0.00000000	          0.00000000	          0.04191526	          0.00000000	
          2.73500000	         86.44889700	        844.57863925	         68.52543149	         -0.32229634	          0.00000000	         -0.11226857	          1.12934785	        -11.89171216	         -0.81542302	         -0.00286170	          0.00000000	         -0.00212921	          0.00000000	          1.55662144	          0.00000000	          0.00000000	         -0.01563234	          0.00000000	
          2.74000000	         90.48455323	        844.36619508	         69.20973553	         -0.32194573	          0.00000000	         -0.11230523	          1.24673064	        -11.39157111	         -0.29435939	         -0.00179779	          0.00000000	         -0.00123418	          0.00000000	          1.57008587	          0.00000000	          0.00000000	         -0.10344301	          0.00000000	
          2.74500000	         94.55256262	        843.18669763	         69.84136304	         -0.32160917	          0.00000000	         -0.11233862	          1.27601809	         -9.20676072	          0.55447943	          0.00008296	          0.00000000	          0.00031373	          0.00000000	          1.58434638	          0.00000000	          0.00000000	         -0.22761575	          0.00000000	
